:SAMPLES-PER-SECOND 30
:FULLY-SPECIFIED
:DEGREES
1
root  -102.836 39.4256 -4.08944 177.063 85.1274 178.055
RightUpLeg  -24.4629 -2.80282 0.760221
RightLeg  30.5794 5.46645 -2.72775
RightFoot  2.72407 -0.679087 4.86854
RightToes  -2.91039e-010 -3.18055e-015 8.94531e-016
Spine  -0.629551 -3.8982 -7.22601
Spine1  9.28019 -5.67795 4.51139
HEad  -7.39638 3.27318 1.99399
LeftShoulder1  0 0 -2.47967e-037
LeftArm  17.1897 6.33051 -83.3672
LeftForeArm  -35.8027 -33.8522 20.8249
LeftHand  0.877366 6.36235 -0.811998
RightShoulder  -2.48481e-017 0 -8.08114e-019
RightArm  10.0632 -40.3441 86.472
RightForeArm  -23.2427 16.139 -1.15406
RightHand  1.55311 -13.6299 -3.30485
LeftUpLeg  -1.35635 -1.73241 -3.72788
LeftLeg  18.3776 -8.69314 3.12458
LeftFoot  -11.2038 -0.0523716 0.997928
LeftToes  -1.92813e-010 7.1836e-011 -1.0882e-011
2
root  -101 39.3661 -4.03495 175.727 83.7509 176.367
RightUpLeg  -24.9678 -2.44502 0.0924076
RightLeg  18.9835 6.73469 -0.847343
RightFoot  4.34297 -0.591191 3.83708
RightToes  -2.91039e-010 -3.18055e-015 8.94531e-016
Spine  -1.00248 -4.95795 -9.94187
Spine1  9.5522 -7.40297 7.90148
HEad  -8.15494 4.5636 1.47173
LeftShoulder1  0 0 -2.47967e-037
LeftArm  16.3587 -1.17887 -81.8073
LeftForeArm  -33.5095 -36.2732 22.064
LeftHand  0.845316 6.07979 -1.20179
RightShoulder  -2.48481e-017 0 -8.08114e-019
RightArm  3.22477 -48.6644 83.474
RightForeArm  -16.6287 13.7949 1.58714
RightHand  1.63011 -14.3759 -3.02343
LeftUpLeg  2.30363 -0.312186 -2.98518
LeftLeg  16.2101 -11.1696 2.40416
LeftFoot  -11.9862 -0.0458973 0.838827
LeftToes  -1.92813e-010 7.1836e-011 -1.0882e-011
3
root  -99.1694 39.3178 -4.00998 177.647 82.8318 177.707
RightUpLeg  -24.577 0.842425 -1.5476
RightLeg  5.74475 6.14401 0.558904
RightFoot  6.02386 -0.712384 4.20931
RightToes  -2.91039e-010 -3.18055e-015 8.94531e-016
Spine  -1.66285 -5.95899 -11.011
Spine1  10.1375 -8.83302 9.89274
HEad  -8.44203 5.68554 1.14348
LeftShoulder1  0 0 -2.47967e-037
LeftArm  14.6336 -6.69552 -79.9426
LeftForeArm  -32.124 -38.8212 23.4029
LeftHand  0.87077 6.28305 -1.17333
RightShoulder  -2.48481e-017 0 -8.08114e-019
RightArm  1.7534 -57.0444 79.2755
RightForeArm  -14.6338 13.1377 2.02033
RightHand  1.5749 -14.2511 -2.462
LeftUpLeg  5.92509 0.731789 -1.72391
LeftLeg  13.3876 -12.9588 1.79769
LeftFoot  -12.0559 -0.035581 -0.015616
LeftToes  -1.92813e-010 7.1836e-011 -1.0882e-011
4
root  -97.201 39.0167 -3.93662 177.37 82.2685 177.113
RightUpLeg  -24.3149 2.2368 -2.41249
RightLeg  -4.30656 6.14505 0.785191
RightFoot  5.03659 -0.856048 5.34115
RightToes  -2.91039e-010 -3.18055e-015 8.94531e-016
Spine  -1.98577 -7.02323 -11.999
Spine1  10.5345 -10.1024 10.7227
HEad  -8.93676 6.96485 1.1155
LeftShoulder1  0 0 -2.47967e-037
LeftArm  13.2384 -11.114 -77.1093
LeftForeArm  -31.1177 -40.4385 24.3195
LeftHand  0.792732 5.81945 0.154914
RightShoulder  -2.48481e-017 0 -8.08114e-019
RightArm  8.52077 -64.2574 72.9735
RightForeArm  -17.7417 14.2712 0.844461
RightHand  1.47294 -13.7862 -1.77586
LeftUpLeg  9.06779 1.74766 -0.289444
LeftLeg  12.7152 -14.898 1.0861
LeftFoot  -12.7325 -0.0275728 -1.75183
LeftToes  -1.92813e-010 7.1836e-011 -1.0882e-011
5
root  -95.1415 38.6319 -3.81637 178.569 82.3774 178.104
RightUpLeg  -25.9985 2.47355 -2.14911
RightLeg  -4.91715 5.47339 1.08866
RightFoot  2.28131 -0.700175 5.16665
RightToes  -2.91039e-010 -3.18055e-015 8.94531e-016
Spine  -2.09138 -7.80267 -12.5194
Spine1  11.0002 -11.111 11.3517
HEad  -9.62859 8.08537 1.31006
LeftShoulder1  0 0 -2.47967e-037
LeftArm  11.1298 -14.0403 -74.2262
LeftForeArm  -30.7565 -41.857 25.131
LeftHand  0.720567 5.54266 2.14231
RightShoulder  -2.48481e-017 0 -8.08114e-019
RightArm  20.4305 -69.5218 63.7888
RightForeArm  -22.1672 15.6405 -0.692904
RightHand  1.44076 -13.7292 -1.383
LeftUpLeg  12.0921 2.48923 1.38496
LeftLeg  12.8724 -16.5757 0.58363
LeftFoot  -12.4676 -0.007256 -3.65712
LeftToes  -1.92813e-010 7.1836e-011 -1.0882e-011
6
root  -93.0078 38.3452 -3.68173 -173.349 83.1822 -174.352
RightUpLeg  -27.8675 3.31962 -0.558569
RightLeg  -0.254946 3.90477 1.0318
RightFoot  2.80223 -0.497217 3.54614
RightToes  -2.91039e-010 -3.18055e-015 8.94531e-016
Spine  -2.7257 -8.11095 -11.5153
Spine1  11.7898 -11.6978 11.7632
HEad  -9.84272 8.69851 1.39694
LeftShoulder1  0 0 -2.47967e-037
LeftArm  8.12581 -14.3384 -72.6268
LeftForeArm  -30.4188 -43.6259 26.1953
LeftHand  0.702543 5.63151 4.10146
RightShoulder  -2.48481e-017 0 -8.08114e-019
RightArm  30.8166 -72.8393 52.2927
RightForeArm  -22.4627 15.6786 -0.696817
RightHand  1.44836 -13.885 -1.23348
LeftUpLeg  14.8806 2.55165 3.32354
LeftLeg  12.6205 -16.7285 0.646752
LeftFoot  -10.238 0.137674 -6.08624
LeftToes  -1.92813e-010 7.1836e-011 -1.0882e-011
7
root  -90.6724 38.0211 -3.54056 -158.629 83.5019 -160.219
RightUpLeg  -30.0512 4.58025 1.89564
RightLeg  8.26225 3.17469 -0.355496
RightFoot  4.44686 -0.312249 2.01059
RightToes  -2.91039e-010 -3.18055e-015 8.94531e-016
Spine  -3.66403 -8.42543 -9.21529
Spine1  12.1592 -11.9725 11.5979
HEad  -9.60202 9.47037 1.10424
LeftShoulder1  0 0 -2.47967e-037
LeftArm  5.60237 -12.246 -72.2447
LeftForeArm  -29.6598 -45.0294 27.1293
LeftHand  0.656685 5.50903 5.50503
RightShoulder  -2.48481e-017 0 -8.08114e-019
RightArm  38.142 -74.4601 40.918
RightForeArm  -19.8995 14.7776 0.40743
RightHand  1.42731 -13.8554 -0.96515
LeftUpLeg  17.1251 1.46243 5.51449
LeftLeg  13.385 -14.943 0.839343
LeftFoot  -6.90598 0.546006 -9.962
LeftToes  -1.92813e-010 7.1836e-011 -1.0882e-011
8
root  -88.336 37.7534 -3.41867 -142.268 82.518 -144.027
RightUpLeg  -30.8882 5.32287 5.02362
RightLeg  15.8715 3.65099 -1.60494
RightFoot  4.69866 -0.149895 0.946216
RightToes  -2.91039e-010 -3.18055e-015 8.94531e-016
Spine  -3.36748 -8.73208 -5.92066
Spine1  11.9206 -12.2502 11.3694
HEad  -9.46159 10.3158 0.820776
LeftShoulder1  0 0 -2.47967e-037
LeftArm  3.97461 -8.71274 -72.6426
LeftForeArm  -29.2194 -45.7689 27.6467
LeftHand  0.643812 5.4613 5.72559
RightShoulder  -2.48481e-017 0 -8.08114e-019
RightArm  43.5124 -74.823 34.4091
RightForeArm  -20.0703 14.6482 0.592429
RightHand  1.39071 -13.7322 -0.608062
LeftUpLeg  18.468 -2.93421 7.41937
LeftLeg  15.9608 -9.53524 0.757097
LeftFoot  -0.793376 1.50189 -13.5532
LeftToes  -1.92813e-010 7.1836e-011 -1.0882e-011
9
root  -86.1842 37.5685 -3.28471 -133.026 80.8568 -134.454
RightUpLeg  -30.5824 4.87341 8.19432
RightLeg  22.3984 4.39827 -2.21766
RightFoot  1.60007 0.0259893 -0.204834
RightToes  -2.91039e-010 -3.18055e-015 8.94531e-016
Spine  -1.63415 -8.78089 -3.00649
Spine1  11.4936 -12.4079 11.6052
HEad  -9.94172 10.6242 1.07783
LeftShoulder1  0 0 -2.47967e-037
LeftArm  3.14023 -4.45171 -74.172
LeftForeArm  -29.7199 -45.8986 27.6954
LeftHand  0.695822 5.70959 5.39803
RightShoulder  -2.48481e-017 0 -8.08114e-019
RightArm  43.438 -74.6059 36.7249
RightForeArm  -22.9162 15.4779 -0.401384
RightHand  1.37767 -13.6634 -0.518283
LeftUpLeg  17.7814 -5.97303 9.77628
LeftLeg  21.6074 -6.27365 1.09484
LeftFoot  9.9145 2.73842 -13.0704
LeftToes  -1.92813e-010 7.1836e-011 -1.0882e-011
10
root  -84.2324 37.3889 -3.12243 -129.151 79.3341 -130.446
RightUpLeg  -29.7767 4.19812 10.806
RightLeg  27.4829 4.4934 -2.89664
RightFoot  -3.20817 0.113556 -1.29613
RightToes  -2.91039e-010 -3.18055e-015 8.94531e-016
Spine  0.210899 -8.58482 -0.601051
Spine1  11.5686 -12.0994 12.0316
HEad  -10.8778 10.0257 1.84422
LeftShoulder1  0 0 -2.47967e-037
LeftArm  3.7176 -0.155748 -76.9489
LeftForeArm  -30.3673 -44.5045 26.7429
LeftHand  0.687963 5.68752 5.63435
RightShoulder  -2.48481e-017 0 -8.08114e-019
RightArm  33.0779 -73.6242 47.7023
RightForeArm  -23.2543 15.7022 -0.853808
RightHand  1.40051 -13.6455 -0.903128
LeftUpLeg  13.9905 -6.23709 12.4951
LeftLeg  30.2181 -6.9565 1.91699
LeftFoot  21.6317 3.16064 -9.77989
LeftToes  -1.92813e-010 7.1836e-011 -1.0882e-011
11
root  -82.3223 37.3246 -2.94195 -127.357 78.4934 -129.183
RightUpLeg  -28.419 4.80392 12.397
RightLeg  30.2097 3.68876 -3.83221
RightFoot  -7.41502 0.104135 -2.03842
RightToes  -2.91039e-010 -3.18055e-015 8.94531e-016
Spine  1.01771 -7.99318 1.21881
Spine1  11.7303 -11.1822 11.9089
HEad  -11.6984 8.88141 2.45688
LeftShoulder1  0 0 -2.47967e-037
LeftArm  6.07094 4.06132 -80.2726
LeftForeArm  -30.1508 -40.8747 24.6222
LeftHand  0.576039 5.15953 6.24886
RightShoulder  -2.48481e-017 0 -8.08114e-019
RightArm  17.9188 -70.7636 62.203
RightForeArm  -21.4014 15.3015 -0.521132
RightHand  1.44177 -13.561 -1.69674
LeftUpLeg  8.26516 -6.28293 14.1456
LeftLeg  39.1139 -7.41002 2.94731
LeftFoot  26.9825 2.83196 -7.46134
LeftToes  -1.92813e-010 7.1836e-011 -1.0882e-011
12
root  -80.3209 37.505 -2.79634 -125.874 78.2986 -128.659
RightUpLeg  -26.0261 6.52586 13.2923
RightLeg  30.4504 2.33262 -4.74924
RightFoot  -10.8061 0.051929 -2.38961
RightToes  -2.91039e-010 -3.18055e-015 8.94531e-016
Spine  1.20905 -6.99848 2.58931
Spine1  11.5519 -9.86893 11.3322
HEad  -12.1787 7.75499 2.39253
LeftShoulder1  0 0 -2.47967e-037
LeftArm  9.43836 9.06335 -83.5257
LeftForeArm  -30.01 -35.9978 22.147
LeftHand  0.425104 4.49251 7.07072
RightShoulder  -2.48481e-017 0 -8.08114e-019
RightArm  10.7389 -65.581 74.0586
RightForeArm  -24.0428 16.3206 -2.00415
RightHand  1.4572 -13.2335 -2.57339
LeftUpLeg  1.72335 -6.33979 14.4756
LeftLeg  46.547 -7.84203 3.88146
LeftFoot  24.6293 1.88559 -5.24603
LeftToes  -1.92813e-010 7.1836e-011 -1.0882e-011
13
root  -78.2495 37.8229 -2.71292 -124.356 78.8833 -128.2
RightUpLeg  -22.8709 8.4895 13.5528
RightLeg  29.4682 0.933402 -5.40552
RightFoot  -14.4926 -0.0191966 -2.00388
RightToes  -2.91039e-010 -3.18055e-015 8.94531e-016
Spine  1.14682 -5.72212 3.47549
Spine1  11.4909 -8.29525 10.56
HEad  -12.5723 6.70775 1.84606
LeftShoulder1  0 0 -2.47967e-037
LeftArm  13.6447 15.258 -86.4416
LeftForeArm  -33.2868 -31.0845 19.7853
LeftHand  0.28178 4.00001 8.48942
RightShoulder  -2.48481e-017 0 -8.08114e-019
RightArm  13.7002 -58.5199 81.5754
RightForeArm  -32.7833 18.6996 -6.79263
RightHand  1.44913 -12.8979 -3.14925
LeftUpLeg  -4.84834 -6.65326 13.3612
LeftLeg  51.8423 -8.63816 3.9709
LeftFoot  19.3489 1.12459 -3.62414
LeftToes  -1.92813e-010 7.1836e-011 -1.0882e-011
14
root  -76.1342 38.1111 -2.68503 -120.643 80.1899 -125.728
RightUpLeg  -19.4451 10.6436 13.3434
RightLeg  27.8753 -0.175867 -5.66628
RightFoot  -18.3541 -0.0294985 -0.775592
RightToes  -2.91039e-010 -3.18055e-015 8.94531e-016
Spine  0.344067 -4.14832 4.6427
Spine1  12.1543 -6.25794 9.08176
HEad  -12.8521 5.23719 1.4929
LeftShoulder1  0 0 -2.47967e-037
LeftArm  21.1689 21.7638 -88.7121
LeftForeArm  -43.0755 -26.0805 17.2458
LeftHand  0.21482 3.83866 9.47427
RightShoulder  -2.48481e-017 0 -8.08114e-019
RightArm  19.4896 -50.2661 85.7031
RightForeArm  -42.195 20.2147 -12.9286
RightHand  1.49979 -12.9915 -3.80867
LeftUpLeg  -11.3605 -6.80754 11.5018
LeftLeg  55.1647 -9.48661 3.38748
LeftFoot  15.4467 1.05031 -3.89951
LeftToes  -1.92813e-010 7.1836e-011 -1.0882e-011
15
root  -73.9229 38.2759 -2.68838 -111.845 81.8391 -118.347
RightUpLeg  -15.7626 13.2958 13.022
RightLeg  25.6086 -1.05779 -5.56213
RightFoot  -21.2491 0.0218401 0.211562
RightToes  -2.91039e-010 -3.18055e-015 8.94531e-016
Spine  -1.04676 -2.24051 6.75329
Spine1  13.1201 -3.53492 6.10454
HEad  -12.6199 3.1819 1.6985
LeftShoulder1  0 0 -2.47967e-037
LeftArm  15.1066 27.523 -88.8057
LeftForeArm  -36.3605 -21.6442 6.30109
LeftHand  0.268713 3.95801 8.61812
RightShoulder  -2.48481e-017 0 -8.08114e-019
RightArm  24.5788 -41.8604 87.5591
RightForeArm  -49.0482 21.1444 -19.8473
RightHand  1.58419 -13.0861 -5.01136
LeftUpLeg  -17.5806 -6.30845 9.65427
LeftLeg  56.7763 -9.96178 2.9141
LeftFoot  11.9302 1.09897 -4.7272
LeftToes  -1.92813e-010 7.1836e-011 -1.0882e-011
